<mxfile host="app.diagrams.net" agent="Mozilla/5.0 (Windows NT 10.0; Win64; x64) AppleWebKit/537.36 (KHTML, like Gecko) Chrome/136.0.0.0 Safari/537.36" version="27.1.0">
  <diagram id="ZlMczgWSLFKLbH-kt61-" name="Page-1">
    <mxGraphModel grid="1" page="1" gridSize="10" guides="1" tooltips="1" connect="1" arrows="1" fold="1" pageScale="1" pageWidth="827" pageHeight="1169" background="#FFFFFF" math="0" shadow="0">
      <root>
        <mxCell id="0" />
        <mxCell id="1" parent="0" />
        <mxCell id="Bb0VLfqd_XReyqCJAb9b-1" value="" style="rounded=1;whiteSpace=wrap;html=1;labelBackgroundColor=none;fillColor=#cce5ff;strokeColor=#36393d;" vertex="1" parent="1">
          <mxGeometry x="750" y="-990" width="210" height="400" as="geometry" />
        </mxCell>
        <mxCell id="Bb0VLfqd_XReyqCJAb9b-2" value="&lt;font style=&quot;font-size: 16px;&quot;&gt;Sign In&lt;/font&gt;" style="ellipse;whiteSpace=wrap;html=1;labelBackgroundColor=none;rounded=1;fillColor=#cce5ff;strokeColor=#36393d;" vertex="1" parent="1">
          <mxGeometry x="772.5" y="-930" width="167.5" height="50" as="geometry" />
        </mxCell>
        <mxCell id="Bb0VLfqd_XReyqCJAb9b-5" value="&lt;font style=&quot;font-size: 16px;&quot;&gt;Sign Up&lt;/font&gt;" style="ellipse;whiteSpace=wrap;html=1;labelBackgroundColor=none;rounded=1;fillColor=#cce5ff;strokeColor=#36393d;" vertex="1" parent="1">
          <mxGeometry x="772.5" y="-860" width="167.5" height="50" as="geometry" />
        </mxCell>
        <mxCell id="Bb0VLfqd_XReyqCJAb9b-6" value="&lt;font style=&quot;font-size: 16px;&quot;&gt;Logout&lt;/font&gt;" style="ellipse;whiteSpace=wrap;html=1;labelBackgroundColor=none;rounded=1;fillColor=#cce5ff;strokeColor=#36393d;" vertex="1" parent="1">
          <mxGeometry x="772.5" y="-800" width="167.5" height="50" as="geometry" />
        </mxCell>
        <mxCell id="Bb0VLfqd_XReyqCJAb9b-7" value="&lt;font style=&quot;font-size: 16px;&quot;&gt;Forget Password&lt;/font&gt;" style="ellipse;whiteSpace=wrap;html=1;labelBackgroundColor=none;rounded=1;fillColor=#cce5ff;strokeColor=#36393d;" vertex="1" parent="1">
          <mxGeometry x="772.5" y="-730" width="167.5" height="50" as="geometry" />
        </mxCell>
        <mxCell id="Bb0VLfqd_XReyqCJAb9b-8" value="&lt;font style=&quot;font-size: 16px;&quot;&gt;Verification&lt;/font&gt;" style="ellipse;whiteSpace=wrap;html=1;labelBackgroundColor=none;rounded=1;fillColor=#cce5ff;strokeColor=#36393d;" vertex="1" parent="1">
          <mxGeometry x="772.5" y="-660" width="167.5" height="50" as="geometry" />
        </mxCell>
        <mxCell id="Bb0VLfqd_XReyqCJAb9b-9" value="&lt;b&gt;&lt;span style=&quot;font-size:12.0pt;line-height:107%;&lt;br/&gt;font-family:&amp;quot;Times New Roman&amp;quot;,serif;mso-fareast-font-family:&amp;quot;Times New Roman&amp;quot;;&lt;br/&gt;color:#262626;mso-ansi-language:EN-US;mso-fareast-language:EN-US;mso-bidi-language:&lt;br/&gt;AR-SA&quot;&gt;Registration and Login&lt;/span&gt;&lt;/b&gt;" style="text;html=1;align=center;verticalAlign=middle;whiteSpace=wrap;rounded=0;" vertex="1" parent="1">
          <mxGeometry x="766.88" y="-980" width="178.75" height="30" as="geometry" />
        </mxCell>
        <mxCell id="Bb0VLfqd_XReyqCJAb9b-10" value="" style="rounded=1;whiteSpace=wrap;html=1;labelBackgroundColor=none;fillColor=#f9f7ed;strokeColor=#36393d;" vertex="1" parent="1">
          <mxGeometry x="1200" y="10" width="210" height="340" as="geometry" />
        </mxCell>
        <mxCell id="Bb0VLfqd_XReyqCJAb9b-11" value="&lt;font style=&quot;font-size: 16px;&quot;&gt;View Profile&lt;/font&gt;" style="ellipse;whiteSpace=wrap;html=1;labelBackgroundColor=none;rounded=1;fillColor=#f9f7ed;strokeColor=#36393d;" vertex="1" parent="1">
          <mxGeometry x="1222.5" y="70" width="167.5" height="50" as="geometry" />
        </mxCell>
        <mxCell id="Bb0VLfqd_XReyqCJAb9b-12" value="&lt;font style=&quot;font-size: 16px;&quot;&gt;Update Profile&lt;/font&gt;" style="ellipse;whiteSpace=wrap;html=1;labelBackgroundColor=none;rounded=1;fillColor=#f9f7ed;strokeColor=#36393d;" vertex="1" parent="1">
          <mxGeometry x="1222.5" y="140" width="167.5" height="50" as="geometry" />
        </mxCell>
        <mxCell id="Bb0VLfqd_XReyqCJAb9b-13" value="&lt;span style=&quot;font-size: 16px;&quot;&gt;Password Change&lt;/span&gt;" style="ellipse;whiteSpace=wrap;html=1;labelBackgroundColor=none;rounded=1;fillColor=#f9f7ed;strokeColor=#36393d;" vertex="1" parent="1">
          <mxGeometry x="1222.5" y="200" width="167.5" height="50" as="geometry" />
        </mxCell>
        <mxCell id="Bb0VLfqd_XReyqCJAb9b-14" value="&lt;font style=&quot;font-size: 16px;&quot;&gt;Delete Profile&lt;/font&gt;" style="ellipse;whiteSpace=wrap;html=1;labelBackgroundColor=none;rounded=1;fillColor=#f9f7ed;strokeColor=#36393d;" vertex="1" parent="1">
          <mxGeometry x="1222.5" y="270" width="167.5" height="50" as="geometry" />
        </mxCell>
        <mxCell id="Bb0VLfqd_XReyqCJAb9b-16" value="&lt;span style=&quot;font-size: 16px;&quot;&gt;&lt;b&gt;Profile Management&lt;/b&gt;&lt;/span&gt;" style="text;html=1;align=center;verticalAlign=middle;whiteSpace=wrap;rounded=0;fillColor=#f9f7ed;strokeColor=none;" vertex="1" parent="1">
          <mxGeometry x="1216.88" y="20" width="178.75" height="30" as="geometry" />
        </mxCell>
        <mxCell id="Bb0VLfqd_XReyqCJAb9b-17" value="" style="rounded=1;whiteSpace=wrap;html=1;labelBackgroundColor=none;fillColor=#ffcc99;strokeColor=#36393d;" vertex="1" parent="1">
          <mxGeometry x="1046.38" y="-960" width="220" height="350" as="geometry" />
        </mxCell>
        <mxCell id="Bb0VLfqd_XReyqCJAb9b-18" value="&lt;span style=&quot;font-size: 16px;&quot;&gt;View Alumni&amp;nbsp;&lt;/span&gt;&lt;span style=&quot;text-indent: -24px;&quot;&gt;&lt;span style=&quot;font-size: 12pt; font-family: &amp;quot;Times New Roman&amp;quot;, serif;&quot;&gt;Directory&lt;/span&gt;&lt;/span&gt;" style="ellipse;whiteSpace=wrap;html=1;labelBackgroundColor=none;rounded=1;fillColor=#ffcc99;strokeColor=#36393d;" vertex="1" parent="1">
          <mxGeometry x="1073.88" y="-900" width="167.5" height="50" as="geometry" />
        </mxCell>
        <mxCell id="Bb0VLfqd_XReyqCJAb9b-19" value="&lt;span style=&quot;font-size: 16px;&quot;&gt;Send Connection Request / Message&lt;/span&gt;" style="ellipse;whiteSpace=wrap;html=1;labelBackgroundColor=none;rounded=1;fillColor=#ffcc99;strokeColor=#36393d;" vertex="1" parent="1">
          <mxGeometry x="1067.63" y="-700" width="177.5" height="60" as="geometry" />
        </mxCell>
        <mxCell id="Bb0VLfqd_XReyqCJAb9b-20" value="&lt;span style=&quot;font-size: 16px;&quot;&gt;Search Alumni by Criteria&lt;/span&gt;" style="ellipse;whiteSpace=wrap;html=1;labelBackgroundColor=none;rounded=1;fillColor=#ffcc99;strokeColor=#36393d;" vertex="1" parent="1">
          <mxGeometry x="1068.88" y="-840" width="173.75" height="60" as="geometry" />
        </mxCell>
        <mxCell id="Bb0VLfqd_XReyqCJAb9b-21" value="&lt;font style=&quot;font-size: 16px;&quot;&gt;View Alumni Profile&lt;/font&gt;" style="ellipse;whiteSpace=wrap;html=1;labelBackgroundColor=none;rounded=1;fillColor=#ffcc99;strokeColor=#36393d;" vertex="1" parent="1">
          <mxGeometry x="1070.7599999999998" y="-770" width="173.75" height="60" as="geometry" />
        </mxCell>
        <mxCell id="Bb0VLfqd_XReyqCJAb9b-23" value="&lt;p style=&quot;margin-bottom:0in;mso-add-space:auto;&lt;br/&gt;text-align:justify;text-indent:-.25in;line-height:115%;mso-list:l0 level1 lfo1;&lt;br/&gt;background:white&quot; class=&quot;MsoListParagraph&quot;&gt;&lt;span style=&quot;font-size: 12pt; font-family: Symbol; color: rgb(38, 38, 38);&quot;&gt;&lt;span style=&quot;font-variant-numeric: normal; font-variant-east-asian: normal; font-variant-alternates: normal; font-size-adjust: none; font-kerning: auto; font-optical-sizing: auto; font-feature-settings: normal; font-variation-settings: normal; font-variant-position: normal; font-variant-emoji: normal; font-stretch: normal; font-size: 7pt; line-height: normal; font-family: &amp;quot;Times New Roman&amp;quot;;&quot;&gt;&amp;nbsp; &amp;nbsp; &amp;nbsp; &amp;nbsp;&amp;nbsp;&lt;/span&gt;&lt;/span&gt;&lt;b&gt;&lt;span style=&quot;font-size:12.0pt;line-height:&lt;br/&gt;115%;font-family:&amp;quot;Times New Roman&amp;quot;,serif;mso-fareast-font-family:&amp;quot;Times New Roman&amp;quot;;&lt;br/&gt;color:#262626&quot;&gt;Alumni Directory and Search&lt;/span&gt;&lt;/b&gt;&lt;span style=&quot;line-height: 115%; font-family: &amp;quot;Times New Roman&amp;quot;, serif; color: rgb(38, 38, 38);&quot;&gt;&lt;/span&gt;&lt;/p&gt;" style="text;html=1;align=center;verticalAlign=middle;whiteSpace=wrap;rounded=0;strokeColor=none;fillColor=#ffcc99;" vertex="1" parent="1">
          <mxGeometry x="1054.8200000000002" y="-950" width="203.12" height="30" as="geometry" />
        </mxCell>
        <mxCell id="Bb0VLfqd_XReyqCJAb9b-24" value="" style="rounded=1;whiteSpace=wrap;html=1;labelBackgroundColor=none;fillColor=#ffcccc;strokeColor=#36393d;" vertex="1" parent="1">
          <mxGeometry x="950" y="158" width="210" height="410" as="geometry" />
        </mxCell>
        <mxCell id="Bb0VLfqd_XReyqCJAb9b-25" value="&lt;font style=&quot;font-size: 16px;&quot;&gt;Register as Member&lt;/font&gt;" style="ellipse;whiteSpace=wrap;html=1;labelBackgroundColor=none;rounded=1;fillColor=#ffcccc;strokeColor=#36393d;" vertex="1" parent="1">
          <mxGeometry x="972.5" y="218" width="167.5" height="50" as="geometry" />
        </mxCell>
        <mxCell id="Bb0VLfqd_XReyqCJAb9b-26" value="&lt;font style=&quot;font-size: 16px;&quot;&gt;Approve / Reject&amp;nbsp;&lt;/font&gt;" style="ellipse;whiteSpace=wrap;html=1;labelBackgroundColor=none;rounded=1;fillColor=#ffcccc;strokeColor=#36393d;" vertex="1" parent="1">
          <mxGeometry x="971.25" y="278" width="167.5" height="50" as="geometry" />
        </mxCell>
        <mxCell id="Bb0VLfqd_XReyqCJAb9b-27" value="&lt;font style=&quot;font-size: 16px;&quot;&gt;Discussion Forum&lt;/font&gt;" style="ellipse;whiteSpace=wrap;html=1;labelBackgroundColor=none;rounded=1;fillColor=#ffcccc;strokeColor=#36393d;" vertex="1" parent="1">
          <mxGeometry x="971.25" y="348" width="167.5" height="50" as="geometry" />
        </mxCell>
        <mxCell id="Bb0VLfqd_XReyqCJAb9b-28" value="&lt;font style=&quot;font-size: 16px;&quot;&gt;Manage Association Roles&lt;/font&gt;" style="ellipse;whiteSpace=wrap;html=1;labelBackgroundColor=none;rounded=1;fillColor=#ffcccc;strokeColor=#36393d;" vertex="1" parent="1">
          <mxGeometry x="971.25" y="408" width="167.5" height="70" as="geometry" />
        </mxCell>
        <mxCell id="Bb0VLfqd_XReyqCJAb9b-29" value="&lt;span style=&quot;font-size: 16px;&quot;&gt;View Member&amp;nbsp;&lt;/span&gt;&lt;span style=&quot;text-indent: -24px;&quot;&gt;&lt;span style=&quot;font-size: 12pt; font-family: &amp;quot;Times New Roman&amp;quot;, serif;&quot;&gt;Directory&lt;/span&gt;&lt;/span&gt;" style="ellipse;whiteSpace=wrap;html=1;labelBackgroundColor=none;rounded=1;fillColor=#ffcccc;strokeColor=#36393d;" vertex="1" parent="1">
          <mxGeometry x="971.25" y="488" width="158.75" height="60" as="geometry" />
        </mxCell>
        <mxCell id="Bb0VLfqd_XReyqCJAb9b-30" value="&lt;p style=&quot;margin-bottom:0in;mso-add-space:auto;&lt;br/&gt;text-align:justify;text-indent:-.25in;line-height:115%;mso-list:l0 level1 lfo1;&lt;br/&gt;background:white&quot; class=&quot;MsoListParagraph&quot;&gt;&lt;b&gt;&lt;span style=&quot;font-size:12.0pt;line-height:&lt;br/&gt;115%;font-family:&amp;quot;Times New Roman&amp;quot;,serif;mso-fareast-font-family:&amp;quot;Times New Roman&amp;quot;;&lt;br/&gt;color:#262626&quot;&gt;Alumni Association&lt;/span&gt;&lt;/b&gt;&lt;/p&gt;" style="text;html=1;align=center;verticalAlign=middle;whiteSpace=wrap;rounded=0;fillColor=#ffcccc;strokeColor=none;" vertex="1" parent="1">
          <mxGeometry x="972.5" y="168" width="178.75" height="30" as="geometry" />
        </mxCell>
        <mxCell id="Bb0VLfqd_XReyqCJAb9b-31" value="" style="rounded=1;whiteSpace=wrap;html=1;labelBackgroundColor=none;fillColor=#f5f5f5;strokeColor=#666666;gradientColor=none;" vertex="1" parent="1">
          <mxGeometry x="690" y="221" width="210" height="380" as="geometry" />
        </mxCell>
        <mxCell id="Bb0VLfqd_XReyqCJAb9b-32" value="&lt;font style=&quot;font-size: 16px;&quot;&gt;Organize Event&lt;/font&gt;" style="ellipse;whiteSpace=wrap;html=1;labelBackgroundColor=none;rounded=1;fillColor=#f5f5f5;strokeColor=#666666;gradientColor=none;" vertex="1" parent="1">
          <mxGeometry x="712.5" y="281" width="167.5" height="50" as="geometry" />
        </mxCell>
        <mxCell id="Bb0VLfqd_XReyqCJAb9b-33" value="&lt;font style=&quot;font-size: 16px;&quot;&gt;View Event&amp;nbsp;&lt;/font&gt;" style="ellipse;whiteSpace=wrap;html=1;labelBackgroundColor=none;rounded=1;fillColor=#f5f5f5;strokeColor=#666666;gradientColor=none;" vertex="1" parent="1">
          <mxGeometry x="711.25" y="411" width="167.5" height="50" as="geometry" />
        </mxCell>
        <mxCell id="Bb0VLfqd_XReyqCJAb9b-34" value="&lt;font style=&quot;font-size: 16px;&quot;&gt;Event Feedback&lt;/font&gt;" style="ellipse;whiteSpace=wrap;html=1;labelBackgroundColor=none;rounded=1;fillColor=#f5f5f5;strokeColor=#666666;gradientColor=none;" vertex="1" parent="1">
          <mxGeometry x="711.25" y="531" width="167.5" height="50" as="geometry" />
        </mxCell>
        <mxCell id="Bb0VLfqd_XReyqCJAb9b-35" value="&lt;font style=&quot;font-size: 16px;&quot;&gt;Event Check-in&lt;/font&gt;" style="ellipse;whiteSpace=wrap;html=1;labelBackgroundColor=none;rounded=1;fillColor=#f5f5f5;strokeColor=#666666;gradientColor=none;" vertex="1" parent="1">
          <mxGeometry x="711.25" y="471" width="167.5" height="50" as="geometry" />
        </mxCell>
        <mxCell id="Bb0VLfqd_XReyqCJAb9b-36" value="&lt;font style=&quot;font-size: 16px;&quot;&gt;Register Event&lt;/font&gt;" style="ellipse;whiteSpace=wrap;html=1;labelBackgroundColor=none;rounded=1;fillColor=#f5f5f5;strokeColor=#666666;gradientColor=none;" vertex="1" parent="1">
          <mxGeometry x="712.51" y="341" width="167.5" height="50" as="geometry" />
        </mxCell>
        <mxCell id="Bb0VLfqd_XReyqCJAb9b-37" value="&lt;b&gt;&lt;span style=&quot;font-size:12.0pt;line-height:107%;&lt;br/&gt;font-family:&amp;quot;Times New Roman&amp;quot;,serif;mso-fareast-font-family:&amp;quot;Times New Roman&amp;quot;;&lt;br/&gt;color:#262626;mso-ansi-language:EN-US;mso-fareast-language:EN-US;mso-bidi-language:&lt;br/&gt;AR-SA&quot;&gt;Event Management&lt;/span&gt;&lt;/b&gt;" style="text;html=1;align=center;verticalAlign=middle;whiteSpace=wrap;rounded=0;strokeColor=none;fillColor=#f5f5f5;gradientColor=none;" vertex="1" parent="1">
          <mxGeometry x="706.88" y="231" width="178.75" height="30" as="geometry" />
        </mxCell>
        <mxCell id="Bb0VLfqd_XReyqCJAb9b-38" value="" style="rounded=1;whiteSpace=wrap;html=1;labelBackgroundColor=none;fillColor=#cdeb8b;strokeColor=#36393d;" vertex="1" parent="1">
          <mxGeometry x="1478.75" y="-940" width="210" height="410" as="geometry" />
        </mxCell>
        <mxCell id="Bb0VLfqd_XReyqCJAb9b-39" value="&lt;font style=&quot;font-size: 16px;&quot;&gt;Collect Donations&lt;/font&gt;" style="ellipse;whiteSpace=wrap;html=1;labelBackgroundColor=none;rounded=1;fillColor=#cdeb8b;strokeColor=#36393d;" vertex="1" parent="1">
          <mxGeometry x="1515.63" y="-750" width="138.75" height="60" as="geometry" />
        </mxCell>
        <mxCell id="Bb0VLfqd_XReyqCJAb9b-40" value="&lt;font style=&quot;font-size: 16px;&quot;&gt;View Donations History&lt;/font&gt;" style="ellipse;whiteSpace=wrap;html=1;labelBackgroundColor=none;rounded=1;fillColor=#cdeb8b;strokeColor=#36393d;" vertex="1" parent="1">
          <mxGeometry x="1518.3899999999999" y="-610" width="130.72" height="60" as="geometry" />
        </mxCell>
        <mxCell id="Bb0VLfqd_XReyqCJAb9b-41" value="&lt;span style=&quot;font-size: 16px;&quot;&gt;Create Fundraising Campaign&lt;/span&gt;" style="ellipse;whiteSpace=wrap;html=1;labelBackgroundColor=none;rounded=1;fillColor=#cdeb8b;strokeColor=#36393d;" vertex="1" parent="1">
          <mxGeometry x="1508.75" y="-890" width="145.43" height="70" as="geometry" />
        </mxCell>
        <mxCell id="Bb0VLfqd_XReyqCJAb9b-42" value="&lt;font style=&quot;font-size: 16px;&quot;&gt;Create Donation Receipt&lt;/font&gt;" style="ellipse;whiteSpace=wrap;html=1;labelBackgroundColor=none;rounded=1;fillColor=#cdeb8b;strokeColor=#36393d;" vertex="1" parent="1">
          <mxGeometry x="1512.0900000000001" y="-680" width="138.75" height="60" as="geometry" />
        </mxCell>
        <mxCell id="Bb0VLfqd_XReyqCJAb9b-43" value="&lt;span style=&quot;font-size: 16px;&quot;&gt;Select Payment Method&lt;/span&gt;" style="ellipse;whiteSpace=wrap;html=1;labelBackgroundColor=none;rounded=1;fillColor=#cdeb8b;strokeColor=#36393d;" vertex="1" parent="1">
          <mxGeometry x="1511.26" y="-815" width="147.5" height="60" as="geometry" />
        </mxCell>
        <mxCell id="Bb0VLfqd_XReyqCJAb9b-44" value="&lt;b&gt;&lt;span style=&quot;font-size:12.0pt;line-height:107%;&lt;br/&gt;font-family:&amp;quot;Times New Roman&amp;quot;,serif;mso-fareast-font-family:&amp;quot;Times New Roman&amp;quot;;&lt;br/&gt;color:#262626;mso-ansi-language:EN-US;mso-fareast-language:EN-US;mso-bidi-language:&lt;br/&gt;AR-SA&quot;&gt;Fundraising &amp;amp; Donation&amp;nbsp;&lt;/span&gt;&lt;/b&gt;" style="text;html=1;align=center;verticalAlign=middle;whiteSpace=wrap;rounded=0;fillColor=#cdeb8b;strokeColor=none;" vertex="1" parent="1">
          <mxGeometry x="1488.44" y="-930" width="193.12" height="30" as="geometry" />
        </mxCell>
        <mxCell id="jl0400vtrYUEeYDO2_m0-6" value="" style="shape=umlActor;verticalLabelPosition=bottom;verticalAlign=top;html=1;outlineConnect=0;fillColor=#b1ddf0;strokeColor=#10739e;" vertex="1" parent="1">
          <mxGeometry x="110" y="-220" width="120" height="210" as="geometry" />
        </mxCell>
        <mxCell id="jl0400vtrYUEeYDO2_m0-7" value="" style="endArrow=none;html=1;rounded=0;entryX=0.076;entryY=0.981;entryDx=0;entryDy=0;entryPerimeter=0;" edge="1" parent="1" source="jl0400vtrYUEeYDO2_m0-6" target="Bb0VLfqd_XReyqCJAb9b-1">
          <mxGeometry width="50" height="50" relative="1" as="geometry">
            <mxPoint x="300" y="-130" as="sourcePoint" />
            <mxPoint x="340" y="-180" as="targetPoint" />
          </mxGeometry>
        </mxCell>
        <mxCell id="jl0400vtrYUEeYDO2_m0-8" value="" style="endArrow=none;html=1;rounded=0;entryX=0.044;entryY=0.954;entryDx=0;entryDy=0;entryPerimeter=0;" edge="1" parent="1" source="jl0400vtrYUEeYDO2_m0-6" target="Bb0VLfqd_XReyqCJAb9b-17">
          <mxGeometry width="50" height="50" relative="1" as="geometry">
            <mxPoint x="340" y="-130" as="sourcePoint" />
            <mxPoint x="390" y="-180" as="targetPoint" />
          </mxGeometry>
        </mxCell>
        <mxCell id="jl0400vtrYUEeYDO2_m0-9" value="" style="endArrow=none;html=1;rounded=0;entryX=0;entryY=0.606;entryDx=0;entryDy=0;entryPerimeter=0;" edge="1" parent="1" source="jl0400vtrYUEeYDO2_m0-6" target="Bb0VLfqd_XReyqCJAb9b-38">
          <mxGeometry width="50" height="50" relative="1" as="geometry">
            <mxPoint x="490" y="-30" as="sourcePoint" />
            <mxPoint x="540" y="-80" as="targetPoint" />
          </mxGeometry>
        </mxCell>
        <mxCell id="jl0400vtrYUEeYDO2_m0-10" value="" style="endArrow=none;html=1;rounded=0;" edge="1" parent="1" source="jl0400vtrYUEeYDO2_m0-6" target="Bb0VLfqd_XReyqCJAb9b-10">
          <mxGeometry width="50" height="50" relative="1" as="geometry">
            <mxPoint x="870" y="10" as="sourcePoint" />
            <mxPoint x="920" y="-40" as="targetPoint" />
          </mxGeometry>
        </mxCell>
        <mxCell id="jl0400vtrYUEeYDO2_m0-11" value="" style="endArrow=none;html=1;rounded=0;entryX=0.033;entryY=0.16;entryDx=0;entryDy=0;entryPerimeter=0;" edge="1" parent="1" source="jl0400vtrYUEeYDO2_m0-6" target="Bb0VLfqd_XReyqCJAb9b-24">
          <mxGeometry width="50" height="50" relative="1" as="geometry">
            <mxPoint x="530" y="-60" as="sourcePoint" />
            <mxPoint x="580" y="-110" as="targetPoint" />
          </mxGeometry>
        </mxCell>
        <mxCell id="jl0400vtrYUEeYDO2_m0-12" value="" style="endArrow=none;html=1;rounded=0;entryX=0.001;entryY=0.08;entryDx=0;entryDy=0;entryPerimeter=0;" edge="1" parent="1" source="jl0400vtrYUEeYDO2_m0-6" target="Bb0VLfqd_XReyqCJAb9b-31">
          <mxGeometry width="50" height="50" relative="1" as="geometry">
            <mxPoint x="530" y="-60" as="sourcePoint" />
            <mxPoint x="580" y="-110" as="targetPoint" />
          </mxGeometry>
        </mxCell>
        <mxCell id="jl0400vtrYUEeYDO2_m0-16" value="&lt;b style=&quot;&quot;&gt;&lt;font style=&quot;font-size: 19px;&quot;&gt;University&amp;nbsp;&lt;/font&gt;&lt;/b&gt;&lt;div&gt;&lt;b style=&quot;&quot;&gt;&lt;font style=&quot;font-size: 19px;&quot;&gt;Authority&lt;/font&gt;&lt;/b&gt;&lt;/div&gt;" style="text;html=1;align=center;verticalAlign=middle;whiteSpace=wrap;rounded=0;" vertex="1" parent="1">
          <mxGeometry x="92.5" y="-37.5" width="155" height="145" as="geometry" />
        </mxCell>
        <mxCell id="kFoFdyEaRi5WNMbOZkUJ-1" value="" style="rounded=1;whiteSpace=wrap;html=1;labelBackgroundColor=none;fillColor=#ffe6cc;strokeColor=#d79b00;" vertex="1" parent="1">
          <mxGeometry x="1762.75" y="-640" width="254.5" height="290" as="geometry" />
        </mxCell>
        <mxCell id="kFoFdyEaRi5WNMbOZkUJ-2" value="&lt;p style=&quot;margin-bottom:0in;mso-add-space:auto;&lt;br/&gt;text-align:justify;text-indent:-.25in;line-height:115%;mso-list:l0 level1 lfo1;&lt;br/&gt;background:white&quot; class=&quot;MsoListParagraph&quot;&gt;&lt;font face=&quot;Times New Roman, serif&quot;&gt;&lt;span style=&quot;font-size: 16px;&quot;&gt;&lt;b&gt;Communication &amp;amp; Notification System&lt;/b&gt;&lt;/span&gt;&lt;/font&gt;&lt;/p&gt;" style="text;html=1;align=center;verticalAlign=middle;whiteSpace=wrap;rounded=0;fillColor=none;strokeColor=none;" vertex="1" parent="1">
          <mxGeometry x="1789.25" y="-630" width="210" height="30" as="geometry" />
        </mxCell>
        <mxCell id="kFoFdyEaRi5WNMbOZkUJ-3" value="&lt;span style=&quot;font-size: 16px;&quot;&gt;Push Notification&lt;/span&gt;" style="ellipse;whiteSpace=wrap;html=1;labelBackgroundColor=none;rounded=1;fillColor=#ffcccc;strokeColor=#36393d;" vertex="1" parent="1">
          <mxGeometry x="1800.25" y="-580" width="167.5" height="50" as="geometry" />
        </mxCell>
        <mxCell id="kFoFdyEaRi5WNMbOZkUJ-4" value="&lt;span style=&quot;font-size: 16px;&quot;&gt;Send Email&lt;/span&gt;" style="ellipse;whiteSpace=wrap;html=1;labelBackgroundColor=none;rounded=1;fillColor=#ffcccc;strokeColor=#36393d;" vertex="1" parent="1">
          <mxGeometry x="1799" y="-520" width="167.5" height="50" as="geometry" />
        </mxCell>
        <mxCell id="kFoFdyEaRi5WNMbOZkUJ-5" value="&lt;span style=&quot;font-size: 16px;&quot;&gt;Send SMS&lt;/span&gt;" style="ellipse;whiteSpace=wrap;html=1;labelBackgroundColor=none;rounded=1;fillColor=#ffcccc;strokeColor=#36393d;" vertex="1" parent="1">
          <mxGeometry x="1798" y="-458" width="167.5" height="58" as="geometry" />
        </mxCell>
        <mxCell id="kFoFdyEaRi5WNMbOZkUJ-6" value="" style="rounded=1;whiteSpace=wrap;html=1;labelBackgroundColor=none;fillColor=#d5e8d4;strokeColor=#82b366;" vertex="1" parent="1">
          <mxGeometry x="1730" y="-325" width="320" height="285" as="geometry" />
        </mxCell>
        <mxCell id="kFoFdyEaRi5WNMbOZkUJ-7" value="&lt;p style=&quot;margin-bottom:0in;mso-add-space:auto;&lt;br/&gt;text-align:justify;text-indent:-.25in;line-height:115%;mso-list:l0 level1 lfo1;&lt;br/&gt;background:white&quot; class=&quot;MsoListParagraph&quot;&gt;&lt;font face=&quot;Times New Roman, serif&quot;&gt;&lt;span style=&quot;font-size: 16px;&quot;&gt;&lt;b&gt;Help &amp;amp; Support Center(Automated)&lt;/b&gt;&lt;/span&gt;&lt;/font&gt;&lt;/p&gt;" style="text;html=1;align=center;verticalAlign=middle;whiteSpace=wrap;rounded=0;fillColor=none;strokeColor=none;" vertex="1" parent="1">
          <mxGeometry x="1750.1399999999999" y="-305" width="304.36" height="30" as="geometry" />
        </mxCell>
        <mxCell id="kFoFdyEaRi5WNMbOZkUJ-8" value="&lt;span style=&quot;font-size: 16px;&quot;&gt;FAQ&lt;/span&gt;" style="ellipse;whiteSpace=wrap;html=1;labelBackgroundColor=none;rounded=1;fillColor=none;strokeColor=#36393d;" vertex="1" parent="1">
          <mxGeometry x="1805.75" y="-251" width="167.5" height="50" as="geometry" />
        </mxCell>
        <mxCell id="kFoFdyEaRi5WNMbOZkUJ-9" value="&lt;span style=&quot;font-size: 16px;&quot;&gt;Hotline&lt;/span&gt;" style="ellipse;whiteSpace=wrap;html=1;labelBackgroundColor=none;rounded=1;fillColor=none;strokeColor=#36393d;" vertex="1" parent="1">
          <mxGeometry x="1805.75" y="-185" width="167.5" height="50" as="geometry" />
        </mxCell>
        <mxCell id="kFoFdyEaRi5WNMbOZkUJ-10" value="&lt;span style=&quot;font-size: 16px;&quot;&gt;Live Chat&lt;/span&gt;" style="ellipse;whiteSpace=wrap;html=1;labelBackgroundColor=none;rounded=1;fillColor=none;strokeColor=#36393d;" vertex="1" parent="1">
          <mxGeometry x="1805.75" y="-122" width="167.5" height="50" as="geometry" />
        </mxCell>
        <mxCell id="kFoFdyEaRi5WNMbOZkUJ-11" value="" style="rounded=1;whiteSpace=wrap;html=1;labelBackgroundColor=none;fillColor=#1ba1e2;strokeColor=#006EAF;fontColor=#ffffff;" vertex="1" parent="1">
          <mxGeometry x="1436.25" y="-129" width="248.25" height="410" as="geometry" />
        </mxCell>
        <mxCell id="kFoFdyEaRi5WNMbOZkUJ-12" value="&lt;p style=&quot;margin-bottom:0in;mso-add-space:auto;&lt;br/&gt;text-align:justify;text-indent:-.25in;line-height:115%;mso-list:l0 level1 lfo1;&lt;br/&gt;background:white&quot; class=&quot;MsoListParagraph&quot;&gt;&lt;font face=&quot;Times New Roman, serif&quot;&gt;&lt;span style=&quot;font-size: 16px;&quot;&gt;&lt;b&gt;Authority Dashboard&lt;/b&gt;&lt;/span&gt;&lt;/font&gt;&lt;/p&gt;" style="text;html=1;align=center;verticalAlign=middle;whiteSpace=wrap;rounded=0;fillColor=none;strokeColor=none;" vertex="1" parent="1">
          <mxGeometry x="1463.76" y="-119" width="210" height="30" as="geometry" />
        </mxCell>
        <mxCell id="kFoFdyEaRi5WNMbOZkUJ-13" value="&lt;span style=&quot;font-size: 16px;&quot;&gt;Manage Alumni Data&lt;/span&gt;" style="ellipse;whiteSpace=wrap;html=1;labelBackgroundColor=none;rounded=1;fillColor=#ffcccc;strokeColor=#36393d;" vertex="1" parent="1">
          <mxGeometry x="1474.75" y="-69" width="167.5" height="50" as="geometry" />
        </mxCell>
        <mxCell id="kFoFdyEaRi5WNMbOZkUJ-14" value="&lt;div&gt;&lt;span style=&quot;font-size: 16px;&quot;&gt;Send&amp;nbsp;&lt;/span&gt;&lt;span style=&quot;font-size: 16px; background-color: transparent; color: light-dark(rgb(0, 0, 0), rgb(255, 255, 255));&quot;&gt;Notices&lt;/span&gt;&lt;/div&gt;" style="ellipse;whiteSpace=wrap;html=1;labelBackgroundColor=none;rounded=1;fillColor=#ffcccc;strokeColor=#36393d;" vertex="1" parent="1">
          <mxGeometry x="1474.75" y="-5" width="167.5" height="50" as="geometry" />
        </mxCell>
        <mxCell id="kFoFdyEaRi5WNMbOZkUJ-15" value="&lt;span style=&quot;font-size: 16px;&quot;&gt;Publish Events&lt;/span&gt;" style="ellipse;whiteSpace=wrap;html=1;labelBackgroundColor=none;rounded=1;fillColor=#ffcccc;strokeColor=#36393d;" vertex="1" parent="1">
          <mxGeometry x="1476.75" y="62" width="167.5" height="50" as="geometry" />
        </mxCell>
        <mxCell id="kFoFdyEaRi5WNMbOZkUJ-16" value="&lt;span style=&quot;font-size: 16px;&quot;&gt;Campaigns&lt;/span&gt;" style="ellipse;whiteSpace=wrap;html=1;labelBackgroundColor=none;rounded=1;fillColor=#ffcccc;strokeColor=#36393d;" vertex="1" parent="1">
          <mxGeometry x="1478.75" y="124" width="167.5" height="50" as="geometry" />
        </mxCell>
        <mxCell id="kFoFdyEaRi5WNMbOZkUJ-17" value="&lt;span style=&quot;font-size: 16px;&quot;&gt;Track System Analytics&lt;/span&gt;" style="ellipse;whiteSpace=wrap;html=1;labelBackgroundColor=none;rounded=1;fillColor=#ffcccc;strokeColor=#36393d;" vertex="1" parent="1">
          <mxGeometry x="1472.38" y="187" width="180.25" height="63" as="geometry" />
        </mxCell>
        <mxCell id="kFoFdyEaRi5WNMbOZkUJ-18" value="" style="rounded=1;whiteSpace=wrap;html=1;labelBackgroundColor=none;fillColor=#e6d0de;strokeColor=#996185;gradientColor=#d5739d;" vertex="1" parent="1">
          <mxGeometry x="400" y="278" width="254.75" height="332" as="geometry" />
        </mxCell>
        <mxCell id="kFoFdyEaRi5WNMbOZkUJ-19" value="&lt;p style=&quot;margin-bottom:0in;mso-add-space:auto;&lt;br/&gt;text-align:justify;text-indent:-.25in;line-height:115%;mso-list:l0 level1 lfo1;&lt;br/&gt;background:white&quot; class=&quot;MsoListParagraph&quot;&gt;&lt;font face=&quot;Times New Roman, serif&quot;&gt;&lt;span style=&quot;font-size: 16px;&quot;&gt;&lt;b&gt;&amp;nbsp;Reporting&lt;/b&gt;&lt;/span&gt;&lt;/font&gt;&lt;/p&gt;" style="text;html=1;align=center;verticalAlign=middle;whiteSpace=wrap;rounded=0;fillColor=none;strokeColor=none;" vertex="1" parent="1">
          <mxGeometry x="429.1300000000001" y="288" width="210" height="30" as="geometry" />
        </mxCell>
        <mxCell id="kFoFdyEaRi5WNMbOZkUJ-20" value="&lt;span style=&quot;font-size: 16px;&quot;&gt;Alumni Participation&lt;/span&gt;" style="ellipse;whiteSpace=wrap;html=1;labelBackgroundColor=none;rounded=1;fillColor=#ffcccc;strokeColor=#36393d;" vertex="1" parent="1">
          <mxGeometry x="443.63" y="328" width="167.5" height="50" as="geometry" />
        </mxCell>
        <mxCell id="kFoFdyEaRi5WNMbOZkUJ-21" value="&lt;span style=&quot;font-size: 16px;&quot;&gt;Event Registrations&lt;/span&gt;" style="ellipse;whiteSpace=wrap;html=1;labelBackgroundColor=none;rounded=1;fillColor=#ffcccc;strokeColor=#36393d;" vertex="1" parent="1">
          <mxGeometry x="438.5" y="388" width="167.5" height="50" as="geometry" />
        </mxCell>
        <mxCell id="kFoFdyEaRi5WNMbOZkUJ-22" value="&lt;span style=&quot;font-size: 16px;&quot;&gt;Donations Received&lt;/span&gt;" style="ellipse;whiteSpace=wrap;html=1;labelBackgroundColor=none;rounded=1;fillColor=#ffcccc;strokeColor=#36393d;" vertex="1" parent="1">
          <mxGeometry x="437.25" y="452" width="167.5" height="50" as="geometry" />
        </mxCell>
        <mxCell id="kFoFdyEaRi5WNMbOZkUJ-23" value="&lt;span style=&quot;font-size: 16px;&quot;&gt;Engagement Metrics&lt;/span&gt;" style="ellipse;whiteSpace=wrap;html=1;labelBackgroundColor=none;rounded=1;fillColor=#ffcccc;strokeColor=#36393d;" vertex="1" parent="1">
          <mxGeometry x="438.5" y="519" width="167.5" height="50" as="geometry" />
        </mxCell>
        <mxCell id="kFoFdyEaRi5WNMbOZkUJ-24" value="" style="rounded=1;whiteSpace=wrap;html=1;labelBackgroundColor=none;fillColor=#F9FFE4;strokeColor=#432D57;fontColor=#ffffff;fillStyle=auto;" vertex="1" parent="1">
          <mxGeometry x="490" y="-890" width="180" height="210" as="geometry" />
        </mxCell>
        <mxCell id="kFoFdyEaRi5WNMbOZkUJ-25" value="&lt;p style=&quot;margin-bottom:0in;mso-add-space:auto;&lt;br/&gt;text-align:justify;text-indent:-.25in;line-height:115%;mso-list:l0 level1 lfo1;&lt;br/&gt;background:white&quot; class=&quot;MsoListParagraph&quot;&gt;&lt;font face=&quot;Times New Roman, serif&quot;&gt;&lt;span style=&quot;font-size: 16px;&quot;&gt;&lt;b&gt;Security &amp;amp; Privacy&lt;/b&gt;&lt;/span&gt;&lt;/font&gt;&lt;/p&gt;" style="text;html=1;align=center;verticalAlign=middle;whiteSpace=wrap;rounded=0;fillColor=none;strokeColor=none;" vertex="1" parent="1">
          <mxGeometry x="487.51" y="-890" width="210" height="30" as="geometry" />
        </mxCell>
        <mxCell id="kFoFdyEaRi5WNMbOZkUJ-27" value="&lt;div&gt;&lt;span style=&quot;font-size: 16px;&quot;&gt;Strong&lt;/span&gt;&lt;/div&gt;&lt;div&gt;&lt;span style=&quot;font-size: 16px;&quot;&gt;Authentication&lt;/span&gt;&lt;/div&gt;" style="ellipse;whiteSpace=wrap;html=1;labelBackgroundColor=none;rounded=1;fillColor=#FFFFFF;strokeColor=#36393d;" vertex="1" parent="1">
          <mxGeometry x="496.2500000000001" y="-840" width="167.5" height="50" as="geometry" />
        </mxCell>
        <mxCell id="kFoFdyEaRi5WNMbOZkUJ-28" value="&lt;span style=&quot;font-size: 16px;&quot;&gt;Regular Security Audits.&lt;/span&gt;" style="ellipse;whiteSpace=wrap;html=1;labelBackgroundColor=none;rounded=1;fillColor=#FFFFFF;strokeColor=#36393d;" vertex="1" parent="1">
          <mxGeometry x="496.2500000000001" y="-765" width="167.5" height="50" as="geometry" />
        </mxCell>
        <mxCell id="kFoFdyEaRi5WNMbOZkUJ-30" value="" style="endArrow=none;html=1;rounded=0;entryX=0;entryY=0.5;entryDx=0;entryDy=0;" edge="1" parent="1" source="jl0400vtrYUEeYDO2_m0-6" target="kFoFdyEaRi5WNMbOZkUJ-1">
          <mxGeometry width="50" height="50" relative="1" as="geometry">
            <mxPoint x="542.5" y="-119" as="sourcePoint" />
            <mxPoint x="592.5" y="-169" as="targetPoint" />
          </mxGeometry>
        </mxCell>
        <mxCell id="kFoFdyEaRi5WNMbOZkUJ-31" value="" style="endArrow=none;html=1;rounded=0;entryX=0.014;entryY=0.31;entryDx=0;entryDy=0;entryPerimeter=0;" edge="1" parent="1" source="jl0400vtrYUEeYDO2_m0-6" target="kFoFdyEaRi5WNMbOZkUJ-6">
          <mxGeometry width="50" height="50" relative="1" as="geometry">
            <mxPoint x="600" y="-90" as="sourcePoint" />
            <mxPoint x="1040" y="-150" as="targetPoint" />
          </mxGeometry>
        </mxCell>
        <mxCell id="kFoFdyEaRi5WNMbOZkUJ-32" value="" style="endArrow=none;html=1;rounded=0;entryX=-0.002;entryY=0.059;entryDx=0;entryDy=0;entryPerimeter=0;" edge="1" parent="1" source="jl0400vtrYUEeYDO2_m0-6" target="kFoFdyEaRi5WNMbOZkUJ-11">
          <mxGeometry width="50" height="50" relative="1" as="geometry">
            <mxPoint x="800" y="-30" as="sourcePoint" />
            <mxPoint x="850" y="-80" as="targetPoint" />
          </mxGeometry>
        </mxCell>
        <mxCell id="kFoFdyEaRi5WNMbOZkUJ-33" value="" style="endArrow=none;html=1;rounded=0;entryX=0.593;entryY=0.002;entryDx=0;entryDy=0;entryPerimeter=0;" edge="1" parent="1" source="jl0400vtrYUEeYDO2_m0-6" target="kFoFdyEaRi5WNMbOZkUJ-18">
          <mxGeometry width="50" height="50" relative="1" as="geometry">
            <mxPoint x="310" y="-30" as="sourcePoint" />
            <mxPoint x="560" y="190" as="targetPoint" />
          </mxGeometry>
        </mxCell>
        <mxCell id="kFoFdyEaRi5WNMbOZkUJ-36" value="" style="endArrow=none;html=1;rounded=0;entryX=0.39;entryY=1.012;entryDx=0;entryDy=0;entryPerimeter=0;" edge="1" parent="1" source="jl0400vtrYUEeYDO2_m0-6" target="kFoFdyEaRi5WNMbOZkUJ-24">
          <mxGeometry width="50" height="50" relative="1" as="geometry">
            <mxPoint x="260" y="-260" as="sourcePoint" />
            <mxPoint x="310" y="-310" as="targetPoint" />
          </mxGeometry>
        </mxCell>
      </root>
    </mxGraphModel>
  </diagram>
</mxfile>
